<svg version="1.1" xmlns="http://www.w3.org/2000/svg" style="display: block;" viewBox="0 0 2048 1365" width="1536" height="1024" preserveAspectRatio="none">
<path transform="translate(0,0)" fill="rgb(25,23,24)" d="M 0 0 L 2048 0 L 2048 1365 L 0 1365 L 0 0 z"/>
<path transform="translate(0,0)" fill="rgb(251,251,250)" d="M 1123.22 576.859 L 1262.57 576.814 C 1287.02 576.81 1311.45 576.182 1335.9 577.626 C 1376.71 580.036 1368.87 606.38 1364.51 636.012 C 1358.06 679.882 1355.49 689.014 1311.64 695.281 C 1324.35 713.178 1338.38 732.545 1350.39 750.788 L 1324.96 750.9 L 1257.35 750.873 C 1246.65 733.253 1233.33 714.071 1221.82 696.8 C 1212.12 696.822 1202.42 696.761 1192.73 696.616 L 1183.59 750.776 L 1095.55 750.857 C 1102.76 695.089 1113.97 632.685 1123.22 576.859 z"/>
<path transform="translate(0,0)" fill="rgb(25,23,24)" d="M 1205.54 616.996 C 1218.62 616.917 1267.66 613.998 1274.76 621.77 C 1275.61 623.743 1276.14 625.46 1275.78 627.595 C 1274 638.123 1276 649.285 1267.37 656.689 C 1255.88 660.452 1212.59 658.904 1198.58 658.845 C 1201.21 645.123 1203.32 630.826 1205.54 616.996 z"/>
<path transform="translate(0,0)" fill="rgb(251,251,250)" d="M 453.832 577.374 C 463.589 575.984 504.977 576.786 517.892 576.791 L 577.276 576.826 C 591.48 576.824 604.662 576.76 618.812 577.711 C 659.629 580.454 650.041 606.623 644.903 636.084 L 555.221 636 C 555.928 632.259 557.341 627.026 556.833 623.289 C 556.498 620.82 555.344 618.657 553.255 617.247 C 548.999 614.374 516.141 614.985 510.608 616.029 C 507.812 616.557 505.659 617.241 504.078 619.719 C 500.374 625.523 487.947 701.128 489.33 707.608 C 490.7 709.46 492.076 711.338 495.246 711.419 C 505.851 711.691 532.837 714.059 541.27 709.091 C 546.2 706.186 547.512 691.787 548.436 686.038 L 520.644 685.946 C 523.289 674.507 525.124 660.088 526.704 648.407 C 534.334 647.709 554.709 648.328 563.077 648.328 C 589.814 648.275 616.55 648.365 643.286 648.598 C 639.233 668.867 634.552 720.937 625.671 735.36 C 621.039 742.881 610.944 745.893 602.758 747.661 C 574.184 753.832 535.291 750.975 505.476 750.963 C 480.626 750.954 454.475 752.595 429.869 749.354 C 422.198 748.343 412.743 746.222 406.323 741.656 C 402.088 738.644 399.719 733.225 398.896 728.22 C 397.093 717.248 412.016 622.138 415.738 606.514 C 416.996 601.233 418.687 594.941 422.032 590.551 C 429.451 580.815 442.511 578.862 453.832 577.374 z"/>
<path transform="translate(0,0)" fill="rgb(251,251,250)" d="M 912.093 576.851 L 1066.67 576.844 C 1068.6 595.071 1072.62 618.123 1075.29 636.691 L 1091.46 750.833 L 1001.29 750.795 C 1001.06 746.997 1000.63 742.919 1000.29 739.102 C 999.728 732.967 998.708 726.595 997.828 720.474 L 941.035 720.246 C 936.836 730.509 932.546 740.736 928.166 750.923 L 837.928 750.872 C 860.938 693.649 890.143 634.014 912.093 576.851 z"/>
<path transform="translate(0,0)" fill="rgb(25,23,24)" d="M 982.29 615.907 C 985.645 616.208 985.204 615.681 987.627 617.339 C 990.122 631.1 993.516 669.084 994.147 683.374 L 968.25 683.472 L 954.461 683.496 C 963.973 661.064 973.25 638.533 982.29 615.907 z"/>
<path transform="translate(0,0)" fill="rgb(251,251,250)" d="M 669.993 576.859 L 861.92 576.917 L 854.506 620.855 L 751.278 620.778 C 749.871 626.637 748.475 636.383 747.412 642.602 L 850.468 642.682 C 847.78 656.155 845.673 670.672 843.46 684.297 L 764.75 684.277 L 740.673 684.144 C 739.748 691.358 738.339 698.986 737.139 706.194 L 840.459 705.96 L 833.328 750.922 L 641.658 750.85 C 643.159 744.438 644.249 737.826 645.245 731.312 C 653.122 679.824 662.331 628.357 669.993 576.859 z"/>
<path transform="translate(0,0)" fill="rgb(251,251,250)" d="M 1502.35 578.079 L 1516.21 578.172 C 1522.02 597.096 1530.43 619.464 1537.15 638.339 L 1577.6 750.481 L 1565.4 750.785 C 1559.77 734.317 1553.99 717.903 1548.04 701.545 L 1470.67 701.533 C 1459.95 701.638 1449.03 701.469 1438.3 701.408 C 1432.69 712.736 1415.54 738.172 1408.08 750.849 L 1394.94 750.701 C 1421.03 711.4 1445.22 669.629 1470.87 629.931 C 1481.53 613.426 1493.05 595.25 1502.35 578.079 z"/>
<path transform="translate(0,0)" fill="rgb(25,23,24)" d="M 1507.82 589.689 C 1509.79 591.461 1540.09 680.519 1543.83 691.311 C 1522.96 691.594 1501.73 691.458 1480.83 691.522 L 1444.38 691.41 C 1463.28 663.725 1491.08 618.784 1507.82 589.689 z"/>
<path transform="translate(0,0)" fill="rgb(251,251,250)" d="M 1623.51 577.861 C 1626.79 577.792 1631.93 577.478 1634.52 579.227 C 1633.79 591.83 1627.05 627.782 1624.55 641.965 C 1618.31 677.372 1612.98 715.76 1605.73 750.684 L 1594.19 750.651 C 1604.31 697.113 1616.25 631.434 1623.51 577.861 z"/>
</svg>
